<svg xmlns="http://www.w3.org/2000/svg" viewBox="0 0 100 100">
<path d="M 26 10 L 25 11 L 24 11 L 23 12 L 23 14 L 24 15 L 25 15 L 26 16 L 30 16 L 31 17 L 30 18 L 30 19 L 29 20 L 29 23 L 28 24 L 28 31 L 29 32 L 29 34 L 30 35 L 30 36 L 31 37 L 32 37 L 33 38 L 39 38 L 40 37 L 41 37 L 42 36 L 43 36 L 47 32 L 47 31 L 49 29 L 50 29 L 51 30 L 51 31 L 52 32 L 52 35 L 53 36 L 53 40 L 54 41 L 54 44 L 55 45 L 55 46 L 56 47 L 56 49 L 57 50 L 57 51 L 58 52 L 58 55 L 59 56 L 59 62 L 58 63 L 54 63 L 53 64 L 6 64 L 5 65 L 4 65 L 3 66 L 3 67 L 2 68 L 3 69 L 3 70 L 4 71 L 4 72 L 5 73 L 6 73 L 9 76 L 10 76 L 13 79 L 14 79 L 16 81 L 17 81 L 19 83 L 20 83 L 23 86 L 24 86 L 26 88 L 27 88 L 28 89 L 29 89 L 30 90 L 31 90 L 33 92 L 34 92 L 35 93 L 36 93 L 37 94 L 39 94 L 40 95 L 56 95 L 57 94 L 58 94 L 64 88 L 64 85 L 65 84 L 65 69 L 67 67 L 72 67 L 73 66 L 87 66 L 88 65 L 97 65 L 98 64 L 99 64 L 99 59 L 90 59 L 89 60 L 77 60 L 76 61 L 70 61 L 69 62 L 66 62 L 65 61 L 65 58 L 64 57 L 64 53 L 63 52 L 63 50 L 62 49 L 62 47 L 61 46 L 61 45 L 60 44 L 60 42 L 59 41 L 59 38 L 58 37 L 58 34 L 57 33 L 57 30 L 56 29 L 56 28 L 55 27 L 55 26 L 54 25 L 54 24 L 52 22 L 52 21 L 48 17 L 48 16 L 44 12 L 43 12 L 42 11 L 39 11 L 38 10 Z M 49 70 L 50 69 L 58 69 L 59 70 L 59 85 L 55 89 L 54 89 L 53 90 L 47 90 L 46 89 L 40 89 L 39 88 L 38 88 L 37 87 L 36 87 L 35 86 L 34 86 L 32 84 L 31 84 L 30 83 L 29 83 L 27 81 L 26 81 L 24 79 L 23 79 L 21 77 L 20 77 L 17 74 L 16 74 L 13 71 L 14 70 Z M 36 21 L 42 21 L 44 23 L 44 26 L 42 28 L 42 29 L 39 32 L 37 32 L 36 33 L 34 31 L 34 23 Z M 0 0 L 0 99 L 0 1 L 1 0 L 99 0 Z" fill="black" fill-rule="evenodd" />
</svg>