<svg xmlns="http://www.w3.org/2000/svg" viewBox="0 0 100 100">
<path d="M 20 16 L 19 17 L 15 17 L 14 18 L 12 18 L 11 19 L 11 20 L 10 21 L 10 23 L 9 24 L 9 40 L 10 41 L 10 43 L 12 45 L 12 46 L 13 47 L 14 47 L 15 48 L 21 48 L 22 47 L 23 47 L 25 45 L 25 44 L 26 43 L 26 25 L 24 23 L 26 21 L 37 21 L 41 25 L 41 27 L 42 28 L 42 31 L 43 32 L 43 55 L 44 56 L 44 57 L 45 58 L 45 59 L 47 61 L 48 61 L 49 62 L 50 62 L 51 63 L 59 63 L 60 62 L 61 62 L 62 61 L 63 62 L 63 66 L 62 67 L 62 69 L 61 70 L 61 73 L 60 74 L 60 75 L 59 76 L 59 77 L 56 80 L 55 80 L 54 81 L 35 81 L 34 80 L 33 80 L 32 79 L 31 79 L 22 70 L 22 69 L 21 68 L 21 67 L 19 65 L 16 65 L 15 66 L 15 70 L 16 71 L 16 72 L 28 84 L 29 84 L 30 85 L 31 85 L 32 86 L 34 86 L 35 87 L 53 87 L 54 86 L 56 86 L 57 85 L 58 85 L 59 84 L 60 84 L 64 80 L 64 79 L 65 78 L 65 77 L 66 76 L 66 74 L 67 73 L 67 70 L 68 69 L 68 66 L 69 65 L 69 48 L 68 47 L 65 47 L 63 49 L 63 51 L 62 52 L 62 53 L 58 57 L 57 57 L 56 58 L 53 58 L 49 54 L 49 53 L 48 52 L 48 28 L 47 27 L 47 24 L 46 23 L 46 22 L 45 21 L 45 20 L 43 18 L 42 18 L 40 16 Z M 15 34 L 16 33 L 17 34 L 19 34 L 20 35 L 20 41 L 18 43 L 15 40 Z M 0 0 L 0 99 L 0 1 L 1 0 L 99 0 Z" fill="black" fill-rule="evenodd" />
</svg>