<svg xmlns="http://www.w3.org/2000/svg" viewBox="0 0 100 100">
<path d="M 61 52 L 59 54 L 59 56 L 60 57 L 66 57 L 67 58 L 67 77 L 66 78 L 65 77 L 65 65 L 64 64 L 64 63 L 63 62 L 63 61 L 62 60 L 61 60 L 60 59 L 57 59 L 55 61 L 55 63 L 56 64 L 57 64 L 59 66 L 59 75 L 60 76 L 60 80 L 62 82 L 64 82 L 66 80 L 68 82 L 68 83 L 69 83 L 70 84 L 71 84 L 73 82 L 73 59 L 74 58 L 75 58 L 76 57 L 82 57 L 82 56 L 83 55 L 83 54 L 81 52 Z M 0 0 L 0 99 L 0 76 L 1 75 L 2 76 L 2 77 L 9 84 L 10 84 L 12 86 L 15 86 L 16 87 L 43 87 L 44 86 L 47 86 L 49 84 L 50 84 L 51 83 L 51 82 L 52 81 L 52 59 L 51 58 L 51 48 L 50 47 L 50 43 L 49 42 L 49 41 L 48 40 L 44 40 L 42 42 L 32 42 L 31 41 L 31 40 L 29 38 L 29 37 L 27 35 L 27 34 L 26 33 L 26 24 L 25 23 L 25 22 L 24 21 L 23 21 L 22 20 L 9 20 L 6 23 L 6 24 L 5 25 L 5 32 L 6 33 L 6 41 L 7 42 L 7 45 L 8 46 L 8 47 L 9 48 L 9 49 L 13 53 L 20 53 L 22 51 L 22 50 L 23 49 L 23 43 L 24 42 L 25 42 L 27 44 L 27 45 L 28 46 L 29 46 L 30 47 L 31 47 L 32 48 L 42 48 L 43 47 L 44 47 L 45 48 L 45 54 L 46 55 L 46 61 L 47 62 L 47 78 L 44 81 L 15 81 L 14 80 L 13 80 L 7 74 L 7 73 L 5 71 L 2 71 L 1 72 L 0 71 L 0 1 L 1 0 L 99 0 Z M 11 26 L 12 25 L 19 25 L 21 27 L 21 28 L 20 29 L 17 29 L 16 28 L 15 29 L 14 29 L 14 33 L 15 34 L 16 34 L 17 35 L 17 37 L 18 38 L 18 46 L 16 48 L 13 45 L 13 44 L 12 43 L 12 36 L 11 35 L 11 29 L 10 28 L 11 27 Z" fill="black" fill-rule="evenodd" />
</svg>