<svg xmlns="http://www.w3.org/2000/svg" viewBox="0 0 100 100">
<path d="M 25 25 L 24 26 L 21 26 L 17 30 L 17 31 L 16 32 L 16 33 L 15 34 L 15 44 L 16 45 L 16 46 L 17 47 L 21 47 L 22 46 L 23 46 L 24 45 L 24 44 L 26 42 L 26 41 L 27 40 L 27 39 L 28 38 L 28 36 L 29 35 L 29 32 L 30 31 L 31 31 L 34 34 L 34 35 L 35 36 L 35 37 L 36 38 L 36 40 L 37 41 L 37 43 L 38 44 L 38 45 L 39 46 L 39 48 L 40 49 L 40 51 L 41 52 L 41 55 L 40 56 L 25 56 L 24 57 L 9 57 L 6 60 L 6 65 L 7 66 L 7 68 L 8 69 L 8 71 L 9 72 L 9 73 L 10 74 L 10 76 L 12 78 L 12 79 L 13 80 L 13 81 L 14 82 L 14 83 L 15 84 L 15 85 L 17 87 L 17 88 L 19 90 L 19 91 L 21 93 L 21 94 L 26 99 L 39 99 L 41 97 L 42 97 L 46 93 L 46 92 L 47 91 L 47 90 L 48 89 L 48 62 L 49 61 L 51 61 L 52 60 L 59 60 L 60 59 L 61 59 L 62 58 L 64 58 L 65 59 L 65 75 L 66 76 L 66 77 L 67 77 L 68 78 L 70 78 L 71 77 L 73 77 L 74 76 L 75 76 L 77 74 L 78 74 L 79 73 L 81 73 L 83 75 L 83 76 L 84 77 L 84 79 L 85 80 L 85 83 L 86 84 L 86 99 L 91 99 L 91 81 L 90 80 L 90 78 L 89 77 L 89 75 L 88 74 L 88 73 L 87 72 L 87 71 L 84 68 L 83 68 L 82 67 L 79 67 L 78 68 L 76 68 L 75 69 L 74 69 L 72 71 L 70 69 L 70 31 L 69 30 L 69 29 L 68 28 L 65 28 L 64 29 L 64 30 L 63 31 L 63 37 L 62 38 L 62 49 L 61 50 L 61 52 L 59 54 L 57 54 L 56 55 L 48 55 L 47 54 L 47 53 L 46 52 L 46 50 L 45 49 L 45 47 L 44 46 L 44 44 L 43 43 L 43 41 L 42 40 L 42 39 L 41 38 L 41 36 L 40 35 L 40 34 L 39 33 L 39 32 L 38 31 L 38 30 L 34 26 L 33 26 L 32 25 Z M 12 63 L 13 62 L 42 62 L 43 63 L 43 86 L 42 87 L 42 89 L 38 93 L 37 93 L 36 94 L 35 94 L 34 95 L 31 95 L 30 94 L 29 94 L 26 91 L 26 90 L 23 87 L 23 86 L 21 84 L 21 83 L 20 82 L 20 81 L 18 79 L 18 78 L 17 77 L 17 76 L 16 75 L 16 74 L 15 73 L 15 72 L 14 71 L 14 69 L 13 68 L 13 66 L 12 65 Z M 21 35 L 22 34 L 23 35 L 23 36 L 22 37 L 21 36 Z M 0 0 L 0 99 L 0 1 L 1 0 L 99 0 Z" fill="black" fill-rule="evenodd" />
</svg>