<svg xmlns="http://www.w3.org/2000/svg" viewBox="0 0 100 100">
<path d="M 0 0 L 0 99 L 0 54 L 1 53 L 3 55 L 3 56 L 15 68 L 15 69 L 14 70 L 12 70 L 11 71 L 9 71 L 7 73 L 6 73 L 5 74 L 5 75 L 4 76 L 4 77 L 3 78 L 3 81 L 4 82 L 4 84 L 5 85 L 5 86 L 6 87 L 7 87 L 10 90 L 11 90 L 12 91 L 13 91 L 14 92 L 18 92 L 19 93 L 21 93 L 22 92 L 28 92 L 29 91 L 32 91 L 33 90 L 35 90 L 36 89 L 38 89 L 39 88 L 40 88 L 41 87 L 43 87 L 44 86 L 45 86 L 46 85 L 47 85 L 48 84 L 59 84 L 60 83 L 62 83 L 63 82 L 64 82 L 65 81 L 66 81 L 67 80 L 68 80 L 69 79 L 70 79 L 72 77 L 73 77 L 75 75 L 75 74 L 77 72 L 77 66 L 75 64 L 74 64 L 73 63 L 60 63 L 59 62 L 59 39 L 58 38 L 58 36 L 57 35 L 57 33 L 54 30 L 53 30 L 52 29 L 50 29 L 49 28 L 35 28 L 34 29 L 30 29 L 29 30 L 28 30 L 26 32 L 25 32 L 25 33 L 22 36 L 22 37 L 21 38 L 21 39 L 19 41 L 19 42 L 18 43 L 18 44 L 17 45 L 17 49 L 18 50 L 18 51 L 19 52 L 24 52 L 26 50 L 27 50 L 29 48 L 30 48 L 36 42 L 36 41 L 37 40 L 37 38 L 38 37 L 38 35 L 39 34 L 50 34 L 52 36 L 52 37 L 53 38 L 53 42 L 54 43 L 54 60 L 53 61 L 53 63 L 51 65 L 47 65 L 46 66 L 43 66 L 42 67 L 26 67 L 25 68 L 24 68 L 22 66 L 21 66 L 7 52 L 7 51 L 6 50 L 6 49 L 5 48 L 5 23 L 10 18 L 11 18 L 13 16 L 14 16 L 16 14 L 17 14 L 19 12 L 22 12 L 23 11 L 26 11 L 27 10 L 28 10 L 29 9 L 32 9 L 33 8 L 38 8 L 39 7 L 42 7 L 43 8 L 49 8 L 50 9 L 52 9 L 53 10 L 54 10 L 55 11 L 56 11 L 57 12 L 58 12 L 60 14 L 61 14 L 63 16 L 64 16 L 66 18 L 67 18 L 70 21 L 71 21 L 74 24 L 77 24 L 78 23 L 78 20 L 75 17 L 74 17 L 71 14 L 70 14 L 67 11 L 66 11 L 64 9 L 63 9 L 62 8 L 61 8 L 59 6 L 58 6 L 57 5 L 56 5 L 55 4 L 53 4 L 52 3 L 50 3 L 49 2 L 34 2 L 33 3 L 30 3 L 29 4 L 27 4 L 26 5 L 24 5 L 23 6 L 19 6 L 18 7 L 16 7 L 14 9 L 13 9 L 10 12 L 9 12 L 7 14 L 6 14 L 1 19 L 0 18 L 0 1 L 1 0 L 99 0 Z M 20 75 L 21 74 L 22 74 L 23 75 L 24 75 L 27 78 L 28 78 L 30 80 L 31 80 L 32 81 L 33 81 L 35 83 L 33 85 L 30 85 L 29 86 L 25 86 L 24 87 L 17 87 L 16 86 L 15 86 L 14 85 L 13 85 L 9 81 L 9 78 L 10 77 L 11 77 L 12 76 L 15 76 L 16 75 Z M 46 72 L 47 71 L 50 71 L 51 72 L 49 74 L 49 75 L 46 78 L 39 78 L 38 77 L 37 77 L 36 76 L 35 76 L 34 75 L 33 75 L 32 74 L 33 73 L 40 73 L 41 72 Z M 57 70 L 58 69 L 70 69 L 71 70 L 71 71 L 69 73 L 68 73 L 67 74 L 66 74 L 64 76 L 63 76 L 62 77 L 61 77 L 60 78 L 55 78 L 54 77 L 55 76 L 55 75 L 56 74 L 56 73 L 57 72 Z M 29 37 L 30 37 L 31 38 L 31 39 L 27 43 L 26 42 L 26 41 L 27 40 L 27 39 Z" fill="black" fill-rule="evenodd" />
</svg>