<svg xmlns="http://www.w3.org/2000/svg" viewBox="0 0 100 100">
<path d="M 38 55 L 38 56 L 37 57 L 37 58 L 38 59 L 38 60 L 41 60 L 42 59 L 42 56 L 41 55 Z M 21 12 L 19 14 L 19 15 L 18 16 L 18 21 L 17 22 L 17 27 L 16 28 L 16 80 L 17 81 L 18 81 L 19 82 L 20 81 L 21 81 L 21 80 L 22 79 L 22 28 L 24 26 L 52 26 L 53 27 L 53 36 L 54 37 L 54 69 L 55 69 L 56 70 L 57 70 L 58 69 L 59 69 L 59 52 L 60 51 L 61 52 L 63 52 L 65 50 L 65 49 L 64 48 L 64 47 L 63 47 L 62 46 L 61 47 L 60 47 L 59 46 L 59 27 L 60 26 L 75 26 L 76 25 L 77 25 L 77 24 L 78 23 L 78 22 L 76 20 L 65 20 L 64 19 L 57 19 L 56 20 L 24 20 L 23 19 L 25 17 L 25 16 L 26 15 L 26 13 L 25 12 Z M 0 0 L 0 99 L 0 1 L 1 0 L 99 0 Z" fill="black" fill-rule="evenodd" />
</svg>